<?xml version="1.0" standalone="no"?>
<!DOCTYPE svg PUBLIC "-//W3C//DTD SVG 20010904//EN"
 "http://www.w3.org/TR/2001/REC-SVG-20010904/DTD/svg10.dtd">
<svg version="1.0" xmlns="http://www.w3.org/2000/svg"
 width="700.000000pt" height="700.000000pt" viewBox="0 0 700.000000 700.000000"
 preserveAspectRatio="xMidYMid meet">
<metadata>
Created by potrace 1.14, written by Peter Selinger 2001-2017
</metadata>
<g transform="translate(0.000000,700.000000) scale(0.100000,-0.100000)"
fill="#000000" stroke="none">
<path d="M3278 6996 c-1 -2 -42 -6 -89 -10 -47 -4 -95 -8 -105 -10 -10 -2 -45
-7 -78 -11 -160 -19 -429 -82 -606 -142 -1059 -357 -1870 -1169 -2224 -2225
-31 -94 -79 -267 -91 -329 -3 -13 -11 -58 -20 -99 -29 -147 -35 -193 -52 -370
-15 -163 -8 -592 12 -711 2 -13 6 -46 9 -74 17 -146 65 -366 123 -555 69 -228
222 -568 343 -763 30 -48 60 -95 65 -105 24 -42 133 -191 208 -285 163 -202
344 -382 557 -552 92 -74 370 -265 386 -265 4 0 15 -6 23 -14 9 -7 81 -47 161
-88 357 -182 733 -302 1109 -354 25 -3 57 -8 71 -10 163 -25 682 -25 842 1 13
2 46 7 73 10 86 12 90 13 200 34 717 139 1422 544 1915 1100 36 41 70 79 76
85 29 30 185 242 240 326 120 184 241 412 315 597 66 163 147 422 175 558 16
79 54 301 59 350 4 33 9 71 11 85 9 47 11 525 3 605 -15 165 -21 220 -24 225
-2 3 -6 30 -10 60 -3 30 -10 71 -15 90 -5 19 -12 51 -15 70 -3 19 -19 87 -35
150 -161 644 -526 1250 -1031 1715 -349 321 -790 581 -1244 733 -168 57 -420
119 -555 137 -19 3 -46 7 -60 10 -13 2 -54 7 -90 11 -36 3 -76 8 -90 11 -27 5
-536 14 -542 9z m429 -661 c57 -3 111 -8 121 -10 11 -2 43 -6 73 -10 30 -3 61
-8 69 -10 8 -2 33 -7 55 -10 45 -6 275 -63 315 -77 8 -3 58 -21 110 -39 534
-183 1027 -558 1375 -1044 211 -295 399 -727 459 -1055 3 -14 9 -48 15 -75 5
-28 12 -73 15 -100 3 -28 8 -59 10 -71 17 -87 23 -407 11 -549 -6 -67 -8 -90
-20 -187 -6 -55 -32 -182 -55 -278 -96 -392 -275 -756 -531 -1083 l-38 -47
-28 41 c-201 291 -468 527 -768 677 -134 68 -311 134 -420 158 -108 24 -238
45 -320 51 -120 10 -1242 9 -1335 -1 -379 -39 -720 -172 -1025 -400 -116 -87
-318 -294 -409 -418 l-78 -107 -22 27 c-112 136 -232 322 -320 498 -59 117
-68 136 -101 219 -9 22 -20 49 -25 60 -14 29 -79 233 -90 280 -49 216 -64 298
-75 405 -3 30 -8 77 -11 103 -7 65 -7 332 0 432 55 721 387 1399 927 1890 170
155 362 290 579 408 211 113 527 228 755 273 22 4 42 8 45 9 6 1 95 15 140 21
19 3 46 7 60 9 14 3 77 8 140 11 63 4 116 7 117 8 4 4 174 -2 280 -9z m473
-4380 c284 -44 504 -147 725 -340 91 -79 227 -252 279 -353 21 -40 32 -28
-133 -139 -212 -142 -524 -286 -773 -357 -100 -29 -298 -71 -378 -81 -30 -4
-66 -9 -80 -10 -161 -21 -525 -22 -635 -1 -11 2 -45 7 -75 11 -436 54 -890
239 -1289 527 l-24 17 28 48 c96 166 247 332 402 442 175 125 417 219 609 237
38 4 71 8 73 10 2 2 270 4 595 3 436 0 613 -4 676 -14z"/>
<path d="M3389 5466 c-2 -2 -26 -6 -54 -10 -409 -50 -777 -333 -946 -729 -61
-145 -90 -294 -90 -474 -1 -62 1 -116 4 -120 3 -4 8 -30 11 -58 13 -115 68
-274 138 -398 93 -165 226 -307 385 -414 83 -55 243 -133 275 -133 9 0 19 -4
22 -9 5 -8 26 -13 106 -27 14 -3 42 -10 63 -15 79 -21 290 -18 427 6 291 50
593 250 763 504 78 116 156 288 172 382 3 18 8 36 10 39 20 32 34 328 20 403
-2 15 -9 54 -15 86 -10 57 -41 163 -60 206 -162 373 -431 615 -802 720 -53 15
-71 19 -138 31 -31 6 -286 14 -291 10z m242 -671 c342 -89 510 -455 355 -775
-40 -82 -149 -194 -231 -237 -159 -83 -349 -83 -510 0 -83 43 -191 154 -232
237 -41 86 -54 137 -57 227 -6 155 55 305 165 410 72 69 141 107 254 141 52
16 189 14 256 -3z"/>
</g>
</svg>
